<svg width="28" height="28" viewBox="0 0 28 28" fill="none" xmlns="http://www.w3.org/2000/svg">
<g clip-path="url(#clip0_641_2938)">
<path d="M14.0007 2.33301C17.1705 2.33301 17.566 2.34467 18.8097 2.40301C20.0522 2.46134 20.898 2.65617 21.6423 2.94551C22.4123 3.24184 23.061 3.64317 23.7097 4.29067C24.3029 4.87389 24.7619 5.57936 25.0548 6.35801C25.343 7.10117 25.539 7.94817 25.5973 9.19067C25.6522 10.4343 25.6673 10.8298 25.6673 13.9997C25.6673 17.1695 25.6557 17.565 25.5973 18.8087C25.539 20.0512 25.343 20.897 25.0548 21.6413C24.7628 22.4204 24.3036 23.1261 23.7097 23.7087C23.1263 24.3017 22.4208 24.7607 21.6423 25.0538C20.8992 25.342 20.0522 25.538 18.8097 25.5963C17.566 25.6512 17.1705 25.6663 14.0007 25.6663C10.8308 25.6663 10.4353 25.6547 9.19165 25.5963C7.94915 25.538 7.10332 25.342 6.35898 25.0538C5.58003 24.7616 4.87443 24.3024 4.29165 23.7087C3.69829 23.1256 3.23924 22.4201 2.94648 21.6413C2.65715 20.8982 2.46232 20.0512 2.40398 18.8087C2.34915 17.565 2.33398 17.1695 2.33398 13.9997C2.33398 10.8298 2.34565 10.4343 2.40398 9.19067C2.46232 7.94701 2.65715 7.10234 2.94648 6.35801C3.23843 5.57888 3.69759 4.87322 4.29165 4.29067C4.8746 3.69711 5.58015 3.23803 6.35898 2.94551C7.10332 2.65617 7.94798 2.46134 9.19165 2.40301C10.4353 2.34817 10.8308 2.33301 14.0007 2.33301ZM14.0007 8.16634C12.4536 8.16634 10.9698 8.78092 9.87586 9.87489C8.7819 10.9688 8.16732 12.4526 8.16732 13.9997C8.16732 15.5468 8.7819 17.0305 9.87586 18.1245C10.9698 19.2184 12.4536 19.833 14.0007 19.833C15.5477 19.833 17.0315 19.2184 18.1254 18.1245C19.2194 17.0305 19.834 15.5468 19.834 13.9997C19.834 12.4526 19.2194 10.9688 18.1254 9.87489C17.0315 8.78092 15.5477 8.16634 14.0007 8.16634ZM21.584 7.87467C21.584 7.4879 21.4303 7.11697 21.1569 6.84348C20.8834 6.56999 20.5124 6.41634 20.1257 6.41634C19.7389 6.41634 19.3679 6.56999 19.0945 6.84348C18.821 7.11697 18.6673 7.4879 18.6673 7.87467C18.6673 8.26145 18.821 8.63238 19.0945 8.90587C19.3679 9.17936 19.7389 9.33301 20.1257 9.33301C20.5124 9.33301 20.8834 9.17936 21.1569 8.90587C21.4303 8.63238 21.584 8.26145 21.584 7.87467ZM14.0007 10.4997C14.9289 10.4997 15.8191 10.8684 16.4755 11.5248C17.1319 12.1812 17.5007 13.0714 17.5007 13.9997C17.5007 14.9279 17.1319 15.8182 16.4755 16.4745C15.8191 17.1309 14.9289 17.4997 14.0007 17.4997C13.0724 17.4997 12.1822 17.1309 11.5258 16.4745C10.8694 15.8182 10.5007 14.9279 10.5007 13.9997C10.5007 13.0714 10.8694 12.1812 11.5258 11.5248C12.1822 10.8684 13.0724 10.4997 14.0007 10.4997Z" fill="url(#paint0_linear_641_2938)"/>
</g>
<defs>
<linearGradient id="paint0_linear_641_2938" x1="25.084" y1="3.49967" x2="4.08398" y2="24.4997" gradientUnits="userSpaceOnUse">
<stop stop-color="#DB00FF"/>
<stop offset="0.536458" stop-color="#EE6B6B"/>
<stop offset="1" stop-color="#FFC700"/>
</linearGradient>
<clipPath id="clip0_641_2938">
<rect width="28" height="28" fill="white"/>
</clipPath>
</defs>
</svg>
