<svg width="28" height="28" viewBox="0 0 28 28" fill="none" xmlns="http://www.w3.org/2000/svg">
<g clip-path="url(#clip0_641_2963)">
<path d="M25.8563 6.59809C24.9657 6.99207 24.0211 7.25081 23.054 7.36576C24.0734 6.7561 24.8363 5.79661 25.2007 4.66609C24.244 5.23543 23.1952 5.63443 22.102 5.85026C21.3677 5.0646 20.3944 4.54355 19.3335 4.36811C18.2725 4.19267 17.1833 4.37267 16.2351 4.88012C15.287 5.38758 14.5331 6.19406 14.0906 7.17418C13.6482 8.15431 13.5419 9.25317 13.7883 10.2999C11.8483 10.2027 9.95039 9.69854 8.21784 8.8202C6.48529 7.94187 4.95682 6.70898 3.73167 5.20159C3.29801 5.94645 3.07012 6.79319 3.07134 7.65509C3.07134 9.34676 3.93234 10.8413 5.24134 11.7163C4.46668 11.6919 3.70908 11.4827 3.03167 11.1061V11.1668C3.03191 12.2934 3.42177 13.3853 4.13516 14.2573C4.84855 15.1293 5.84157 15.7278 6.94584 15.9513C6.22672 16.1461 5.4727 16.1749 4.74084 16.0353C5.05218 17.005 5.65901 17.8532 6.47636 18.4609C7.29371 19.0686 8.28065 19.4055 9.29901 19.4244C8.2869 20.2193 7.12805 20.8069 5.8887 21.1536C4.64935 21.5003 3.35382 21.5994 2.07617 21.4451C4.30649 22.8794 6.90278 23.6409 9.5545 23.6384C18.5297 23.6384 23.4378 16.2033 23.4378 9.75509C23.4378 9.54509 23.432 9.33276 23.4227 9.12509C24.378 8.43462 25.2025 7.57928 25.8575 6.59926L25.8563 6.59809Z" fill="#1D9BF0"/>
</g>
<defs>
<clipPath id="clip0_641_2963">
<rect width="28" height="28" fill="white"/>
</clipPath>
</defs>
</svg>
